<?xml version="1.0" encoding="utf-8"?>
<!-- Generator: Adobe Illustrator 16.0.0, SVG Export Plug-In . SVG Version: 6.00 Build 0)  -->
<!DOCTYPE svg PUBLIC "-//W3C//DTD SVG 1.1//EN" "http://www.w3.org/Graphics/SVG/1.1/DTD/svg11.dtd">
<svg version="1.1" id="Layer_1" xmlns="http://www.w3.org/2000/svg" xmlns:xlink="http://www.w3.org/1999/xlink" x="0px" y="0px"
	 width="612px" height="792px" viewBox="0 0 612 792" enable-background="new 0 0 612 792" xml:space="preserve">
<g>
	<path fill="#88c9be" d="M4.708,538.172c2.825-4.707,7.533-5.648,13.182-5.648c11.298-0.941,23.539-4.708,34.837-7.532
		c17.889-4.708,33.896-12.24,51.785-16.948c45.194-9.415,87.563-2.824,127.108,21.655c11.298,7.532,22.597,15.064,33.895,22.597
		c18.831,12.24,38.603,16.948,61.2,12.24c21.655-4.707,45.193-4.707,66.85,1.884c5.648,1.883,12.239,4.707,16.947,8.474
		c6.591,4.707,7.532,12.24,0.941,17.889c-4.708,4.708-10.356,9.416-16.947,11.299c-14.123,4.708-28.246,8.474-42.369,13.182
		c-0.942,0-0.942,0-1.884,0c-19.771,7.532-38.603,6.591-58.375,0.941c-21.655-5.649-44.252-6.591-66.849-3.767
		c-6.591,0.942-13.182,0-18.831,0c0,0.942,0,1.884,0,1.884c8.474,0.941,16.948,1.883,25.422,2.824
		c24.48,0.941,48.96,5.649,73.44,11.299c11.298,2.824,23.538,2.824,34.837-0.941c16.006-4.708,32.954-9.416,48.96-15.065
		c8.474-2.824,16.947-8.474,25.422-14.123c3.766-2.824,7.532-6.591,8.474-10.356c1.883-4.708,4.707-6.591,8.474-7.532
		c31.07-6.591,63.083-15.064,95.096-19.772c16.006-2.824,32.953-0.941,49.901-0.941c8.474,0,16.006,4.708,20.714,12.24
		c6.591,9.415,5.649,19.772-3.767,26.362c-7.532,4.708-16.006,9.416-25.421,12.24c-79.09,24.48-159.12,48.96-238.21,72.499
		c-13.182,3.766-25.421,8.474-38.603,12.239c-5.649,0-12.24,0-17.89,0c-6.59-0.941-13.181-2.824-19.772-3.766
		c-44.252-10.357-88.505-21.655-133.699-32.013c-31.071-7.532-62.141-5.649-93.212,1.884c-10.357,2.824-14.123,0.941-20.714-9.416
		C4.708,615.379,4.708,576.775,4.708,538.172z"/>
	<path fill="#88c9be" d="M607.292,253.828c-2.824,4.708-7.532,5.649-13.182,5.649c-10.356,0.941-20.714,3.766-30.129,6.591
		c-15.064,4.708-29.188,10.357-44.252,15.064c-49.901,14.123-97.92,7.532-142.173-20.714c-10.356-6.591-19.772-13.182-29.188-19.772
		c-19.772-13.181-39.545-17.889-63.083-13.181c-21.655,4.708-44.252,4.708-66.849-1.883c-5.649-1.883-12.24-4.708-16.948-8.474
		c-7.532-5.649-7.532-13.182-0.941-18.831c5.649-4.708,12.24-9.416,18.831-12.24c13.182-4.708,26.363-7.532,39.544-12.24
		c23.539-8.474,46.136-4.708,69.674,0c17.89,3.766,36.721,3.766,55.551,2.825c7.532-0.941,14.123,0,21.655,0
		c0-0.941,0-1.883,0-1.883c-7.532-0.941-16.006-1.883-23.538-2.824c-26.363-0.942-51.784-5.649-77.206-12.24
		c-10.357-2.825-21.655-1.883-32.012,0.941c-16.006,4.708-32.013,8.474-47.077,14.123c-9.416,3.767-18.831,9.416-27.305,15.065
		c-3.766,2.825-7.532,6.591-8.474,10.357c-1.883,4.708-4.708,6.591-9.416,7.532c-34.837,9.416-68.732,17.889-104.511,21.655
		c-13.182,0.941-26.363,0-39.544-0.941c-8.474-0.941-16.006-4.708-21.656-13.182c-5.649-7.532-4.708-16.006,3.766-22.597
		c6.591-4.708,15.065-9.416,22.597-12.24c49.901-15.064,98.861-30.129,148.763-45.194c32.012-10.357,64.966-19.772,96.979-29.188
		c11.298-3.766,23.539-7.533,34.836-11.299c5.649,0,12.24,0,17.89,0c6.591,0.942,14.123,2.825,20.714,3.766
		c42.369,10.357,84.738,19.772,126.166,31.071c33.896,8.474,66.85,7.533,100.744-0.941c9.416-2.825,14.124,0,19.772,9.416
		C607.292,176.622,607.292,215.225,607.292,253.828z"/>
	<path fill="#88c9be" d="M409.569,396c0,56.492-47.077,103.569-103.569,102.628c-57.434,0-103.569-47.077-102.628-104.511
		c0-56.493,47.077-102.628,103.569-102.628C363.434,293.372,409.569,339.508,409.569,396z M306,307.496
		c-48.96,0-88.504,39.544-88.504,87.563c0,49.901,38.603,89.446,88.504,89.446c48.96,0,89.446-39.545,89.446-88.505
		C394.505,347.04,355.901,307.496,306,307.496z"/>
	<path fill="#88c9be" d="M306,317.853c43.311,0,79.089,35.778,78.147,79.089s-34.837,76.265-77.206,77.206
		c-45.194,0-80.031-34.837-79.089-80.972C228.794,350.806,263.631,317.853,306,317.853z M316.356,345.157
		c-2.824,0-5.648-0.941-7.532-0.941c-3.766-0.941-5.649,0.941-5.649,4.708c0.941,5.649-1.883,7.533-6.591,8.474
		c-8.474,2.825-14.123,8.474-16.006,16.948c-1.883,9.415,1.883,16.948,10.357,22.597c3.766,1.883,8.474,3.767,12.24,5.649
		c1.883,0.941,4.708,1.883,6.591,3.766c1.883,1.884,3.766,5.649,2.824,7.533c-0.941,1.883-4.708,4.707-6.591,4.707
		c-5.649,0-12.24-1.883-17.889-2.824c-2.825-0.941-4.708-1.883-6.591-2.825c-7.532,13.182-6.591,16.948,3.766,19.772
		c7.532,1.884,14.123,3.767,11.298,14.123c2.825,0.941,5.649,0.941,8.474,0.941c4.708,0.942,6.591-0.941,5.649-5.648
		c-0.941-5.649,1.883-7.532,6.591-8.475c9.415-2.824,15.064-8.474,16.947-18.83c1.883-11.299-1.883-18.831-12.24-24.48
		c-3.766-1.883-7.532-3.766-11.298-5.649c-2.825-0.942-4.708-2.825-6.591-4.708c-3.766-3.766-2.824-7.532,1.883-9.415
		c1.883-0.942,4.708-0.942,6.591-0.942c5.649,0.942,11.299,2.825,16.947,3.766c7.532-16.006,6.591-15.064-7.532-18.831
		c-3.766-0.941-5.648-2.825-4.707-6.591C317.299,348.923,317.299,347.04,316.356,345.157z"/>
</g>
</svg>
