<?xml version="1.0" encoding="utf-8"?>
<!-- Generator: Adobe Illustrator 16.0.0, SVG Export Plug-In . SVG Version: 6.00 Build 0)  -->
<!DOCTYPE svg PUBLIC "-//W3C//DTD SVG 1.1//EN" "http://www.w3.org/Graphics/SVG/1.1/DTD/svg11.dtd">
<svg version="1.1" id="Layer_1" xmlns="http://www.w3.org/2000/svg" xmlns:xlink="http://www.w3.org/1999/xlink" x="0px" y="0px"
	 width="612px" height="792px" viewBox="0 0 612 792" enable-background="new 0 0 612 792" xml:space="preserve">
<g>
	<path fill="#88c9be" d="M43.714,626.229c0-2.914,0-4.371,0-7.286c0-40.8,0-80.143,0-120.942c0-5.828-1.457-8.743-5.829-13.114
		c-8.743-7.286-16.029-16.028-23.314-23.314c-7.286-7.285-7.286-11.657,0-18.942c8.743-8.743,16.029-16.029,24.771-24.771
		c2.915-2.915,4.372-5.829,4.372-10.2c0-90.343,0-179.229,0-269.571C43.714,108.943,62.657,90,91.8,90
		c107.829,0,215.657,0,324.943,0c5.828,0,13.114,0,20.399,0c23.314,0,43.715,20.4,43.715,43.714c0,29.143,0,56.829,0,87.429
		c2.914,0,4.371,0,7.285,0c26.229,0,52.457,0,78.686,0c23.314,0,45.172,20.4,45.172,43.714c0,49.543,0,99.086,0,150.085
		c0,10.2-4.371,13.114-13.114,13.114c-17.485,0-33.515,0-51,0c0,2.915,0,4.372,0,7.286c0,29.143,0,59.743,0,88.886
		c0,24.771-20.4,45.172-45.172,45.172c-27.686,0-56.828,0-85.971,0c0,2.914,0,5.828,0,7.285c0,26.229,0,52.457,0,78.686
		c0,24.771-20.4,45.172-45.172,45.172c-107.829,0-215.657,0-324.943,0C20.4,702,0,681.6,0,655.371c0-5.828,0-11.657,0-18.942
		c0-7.286,4.372-11.657,11.657-11.657C21.857,624.771,32.057,626.229,43.714,626.229z M65.571,393.086
		C81.6,375.6,97.628,361.028,112.2,346.457c4.371-4.371,4.371-7.286,1.457-11.657c-13.114-24.771-17.486-51-14.571-78.686
		C107.829,192,169.029,141,233.143,143.914c87.428,4.372,151.542,94.714,118.029,179.229c-18.943,48.085-68.486,81.6-119.486,83.057
		c-24.771,0-46.628-5.829-67.028-18.943c-1.457,1.457-1.457,1.457-2.915,2.914c-30.6,30.6-61.2,61.2-91.8,91.8
		c-1.457,1.457-2.914,5.828-2.914,8.742c0,43.715,0,85.972,0,129.687c0,1.457,0,2.914,0,5.828c2.914,0,4.371,0,7.286,0
		c32.057,0,62.657,0,94.714,0c56.828,0,112.2,0,169.029,0c10.199,0,14.571,4.371,14.571,14.571c0,5.829,0,11.657,0,18.943
		c0,14.571,8.742,21.856,21.856,21.856s21.857-8.742,21.857-21.856c0-1.457,0-4.372,0-5.829c0-166.114,0-332.229,0-499.8
		c0-13.114-1.457-27.686,5.829-40.8c-2.915,0-5.829,0-7.286,0c-100.543,0-201.086,0-301.628,0
		c-20.4-1.458-27.686,5.829-27.686,23.314c0,53.915,0,107.829,0,163.2C65.571,330.429,65.571,359.571,65.571,393.086z M463.371,549
		c-1.457-8.743-4.371-16.028-4.371-24.771c0-17.485,0-36.429,0-53.914c0-112.2,0-222.943,0-335.143
		c0-16.029-8.743-24.771-23.314-23.314c-13.114,0-20.399,8.743-20.399,23.314c0,135.514,0,272.486,0,408c0,1.457,0,2.914,0,5.828
		C432.771,549,448.8,549,463.371,549z M228.771,384.343c61.2,0,109.286-46.628,109.286-107.829
		c0-62.657-46.629-109.286-109.286-110.743c-61.2,0-109.286,46.628-109.286,107.829C119.486,334.8,169.029,384.343,228.771,384.343z
		 M480.857,243c0,2.914,0,5.829,0,7.286c0,59.743,0,119.486,0,179.229c0,32.057,0,64.114,0,96.171
		c0,11.657,4.371,18.943,13.114,21.857c17.485,5.828,30.6-4.371,30.6-21.857c0-80.143,0-160.286,0-238.971
		c0-14.571-2.914-29.143,5.829-42.257C514.371,243,498.343,243,480.857,243z M326.4,648.086c-100.543,0-202.543,0-304.543,0
		C20.4,667.028,23.314,680.143,51,680.143c91.8,0,183.6,0,273.942,0c2.915,0,4.372,0,5.829,0
		C330.771,668.485,327.857,658.286,326.4,648.086z M590.143,406.2c0-13.114,0-24.771,0-36.429c0-34.972,0-68.486,0-103.457
		c0-11.657-4.371-18.943-14.571-21.857c-16.028-5.829-29.143,4.372-29.143,21.857c0,45.171,0,90.343,0,136.972
		c0,1.457,0,2.914,0,4.371C561,406.2,575.571,406.2,590.143,406.2z M51,467.4c20.4-20.4,40.8-40.801,61.2-61.2
		c-4.372-4.372-8.743-10.2-13.114-14.572c-20.4,20.4-40.8,40.8-61.2,61.2C42.257,457.2,46.628,463.028,51,467.4z M144.257,375.6
		c-5.829-5.829-10.2-10.2-14.572-14.572c-5.829,4.372-10.2,10.2-14.571,14.572c4.372,5.829,10.2,10.2,14.571,14.571
		C134.057,384.343,138.429,379.971,144.257,375.6z"/>
	<path fill="#88c9be" d="M99.086,505.286c0-7.286,0-14.572,0-20.4c87.428,0,173.4,0,260.828,0c0,7.286,0,13.114,0,20.4
		C273.943,505.286,186.514,505.286,99.086,505.286z"/>
	<path fill="#88c9be" d="M359.914,527.143c0,7.286,0,14.571,0,20.4c-87.428,0-173.4,0-260.828,0c0-7.286,0-13.114,0-20.4
		C186.514,527.143,272.486,527.143,359.914,527.143z"/>
	<path fill="#88c9be" d="M316.2,570.857c0,7.285,0,14.571,0,20.399c-72.857,0-144.257,0-217.114,0c0-7.285,0-13.114,0-20.399
		C170.486,570.857,243.343,570.857,316.2,570.857z"/>
	<path fill="#88c9be" d="M359.914,439.714c0,7.286,0,14.572,0,20.4c-58.286,0-115.114,0-173.4,0c0-7.286,0-13.114,0-20.4
		C244.8,439.714,301.628,439.714,359.914,439.714z"/>
	<path fill="#88c9be" d="M142.8,461.571c0-7.285,0-14.571,0-20.399c7.286,0,13.114,0,20.4,0c0,7.285,0,13.114,0,20.399
		C157.372,461.571,150.086,461.571,142.8,461.571z"/>
	<path fill="#88c9be" d="M142.8,276.514c0-46.628,40.8-87.428,85.972-87.428c46.628,0,88.886,39.343,88.886,87.428
		c0,46.629-40.8,87.429-87.429,87.429C183.6,363.943,142.8,323.143,142.8,276.514z M228.771,342.086
		c37.886,0,65.571-27.686,65.571-65.572s-27.686-65.571-65.571-65.571S163.2,238.628,163.2,276.514
		C164.657,312.943,192.343,340.628,228.771,342.086z"/>
</g>
</svg>
