<?xml version="1.0" encoding="utf-8"?>
<!-- Generator: Adobe Illustrator 16.0.0, SVG Export Plug-In . SVG Version: 6.00 Build 0)  -->
<!DOCTYPE svg PUBLIC "-//W3C//DTD SVG 1.1//EN" "http://www.w3.org/Graphics/SVG/1.1/DTD/svg11.dtd">
<svg version="1.1" id="Layer_1" xmlns="http://www.w3.org/2000/svg" xmlns:xlink="http://www.w3.org/1999/xlink" x="0px" y="0px"
	 width="612px" height="792px" viewBox="0 0 612 792" enable-background="new 0 0 612 792" xml:space="preserve">
<g>
	<path fill="#88c9be" d="M231.686,527.143c0,51,0,100.543,0,150.086c2.915,0,5.829,0,7.286,0c83.057,0,166.115,0,249.171,0
		c11.657,0,17.486,4.371,17.486,11.657c0,8.743-5.829,11.657-17.486,11.657c-150.085,0-301.628,0-451.714,0
		c-1.458,0-2.915,0-4.372,0c-7.286,0-13.114-5.829-13.114-11.657c0-7.286,5.829-11.657,13.114-13.114c11.657,0,24.771,0,36.429,0
		c0-49.543,0-99.086,0-150.086c-4.372,0-8.743,0-13.114,0c-20.4,0-36.429-16.028-36.429-36.429c0-64.114,0-128.229,0-192.343
		c0-33.514,26.229-58.286,59.743-59.743c48.086,0,94.714,0,142.8,0c33.514,0,59.743,26.229,59.743,59.743
		c0,64.114,0,126.771,0,190.886c0,20.4-16.028,36.429-36.429,36.429C240.429,527.143,236.057,527.143,231.686,527.143z
		 M230.229,502.371c4.372,0,7.286,0,10.2,0c11.657,0,14.571-2.914,14.571-14.571c0-62.657,0-123.857,0-186.514
		c0-21.857-14.571-36.429-36.429-36.429c-46.628,0-91.8,0-138.428,0c-21.857,0-36.429,14.572-36.429,37.886c0,61.2,0,122.4,0,183.6
		c0,1.457,0,4.371,0,5.829c0,5.828,4.372,8.742,8.743,10.199c5.829,0,10.2,0,16.029,0c0-2.914,0-5.828,0-7.285
		c0-42.258,0-83.058,0-125.314c0-1.457,0-4.372,0-5.829c1.457-7.286,7.286-11.657,13.114-11.657s11.657,4.372,11.657,11.657
		c0,1.457,0,4.372,0,5.829c0,42.257,0,83.057,0,125.314c0,2.914,0,4.371,0,7.285c37.886,0,75.771,0,112.2,0c0-2.914,0-5.828,0-7.285
		c0-40.8,0-81.601,0-122.4c0-1.457,0-2.914,0-4.371c0-8.743,5.829-14.572,13.114-14.572s11.657,5.829,11.657,14.572
		c0,26.229,0,53.914,0,80.143C230.229,464.485,230.229,483.429,230.229,502.371z M205.457,677.229c0-51,0-100.543,0-150.086
		c-37.886,0-74.314,0-112.2,0c0,49.543,0,99.086,0,150.086c14.571,0,29.143,0,43.714,0c0-2.914,0-4.371,0-7.286
		c0-36.428,0-74.313,0-110.742c0-1.457,0-2.914,0-4.372c0-8.742,4.371-14.571,11.657-14.571s11.657,5.829,11.657,14.571
		c0,39.344,0,77.229,0,116.572c0,2.914,0,4.371,0,7.285C177.771,677.229,190.886,677.229,205.457,677.229z"/>
	<path fill="#88c9be" d="M565.371,136.628c2.915-2.914,5.829-4.371,8.743-5.829c5.829-4.371,11.657-2.914,16.028,1.458
		c4.372,4.371,4.372,13.114-1.457,16.028c-10.2,5.829-10.2,14.571-8.742,24.771c2.914,27.686-16.029,56.829-49.543,64.114
		c-32.058,7.286-64.114-13.114-72.857-45.171c-7.286-26.229,4.371-53.914,27.686-68.486c23.314-14.571,52.457-11.657,72.857,7.286
		C561,132.257,563.914,135.171,565.371,136.628z M555.172,175.972c-1.458,1.457-4.372,2.914-5.829,4.371
		c-7.286,5.829-14.571,11.657-21.857,17.486c-8.742,5.829-14.571,4.372-20.399-4.372c-4.372-7.286-7.286-14.571-11.657-23.314
		c-2.914-7.286-1.457-13.114,4.371-16.028c5.829-2.914,11.657-1.457,16.028,5.829c1.457,2.914,4.372,7.286,5.829,11.657
		c8.743-7.286,16.028-13.114,23.314-18.943c-11.657-14.571-32.058-17.486-48.086-7.286c-16.028,10.2-21.857,30.6-14.571,48.085
		c7.285,17.486,26.229,26.229,45.171,20.4C546.429,209.486,558.086,192,555.172,175.972z"/>
	<path fill="#88c9be" d="M565.371,286.714c2.915-1.457,5.829-4.372,7.286-5.829c5.828-4.372,13.114-2.914,16.028,1.457
		c4.371,5.829,4.371,13.114-1.457,16.029c-10.2,5.829-8.743,13.114-8.743,23.314c2.915,29.143-17.485,59.743-51,65.572
		c-37.886,5.829-69.942-18.943-72.856-58.286c-1.457-32.058,21.856-58.286,51-64.114c21.856-2.915,39.343,2.914,55.371,17.485
		C563.914,285.257,563.914,285.257,565.371,286.714z M555.172,326.057c-1.458,1.457-4.372,2.915-5.829,4.372
		c-7.286,5.829-14.571,11.657-23.314,18.943c-7.285,5.829-14.571,4.371-18.942-4.372c-4.372-7.286-7.286-14.571-11.657-23.314
		c-2.914-7.286-1.457-14.571,4.371-17.485c5.829-2.915,11.657,0,16.028,5.828c1.457,2.915,4.372,7.286,5.829,10.2
		c8.743-7.286,16.028-13.114,23.314-18.943c-10.2-13.114-32.058-17.486-46.629-7.286c-16.028,10.2-23.314,30.6-14.571,48.086
		c8.743,17.485,27.686,26.229,46.629,20.4C546.429,358.114,558.086,340.628,555.172,326.057z"/>
	<path fill="#88c9be" d="M150.086,90c37.885,0,68.485,30.6,68.485,68.486s-32.057,68.486-68.485,68.486
		c-37.886,0-68.486-30.6-68.486-68.486S112.2,90,150.086,90z M193.8,158.486c0-24.771-18.943-43.714-43.714-43.714
		c-24.771,0-43.714,18.943-43.714,43.714s18.943,43.714,43.714,43.714C173.4,202.2,193.8,183.257,193.8,158.486z"/>
	<path fill="#88c9be" d="M581.4,477.6c0,33.515-27.687,62.657-62.657,62.657c-33.515,0-62.657-27.686-62.657-62.657
		c0-33.514,27.686-62.656,62.657-62.656C552.257,414.942,581.4,442.629,581.4,477.6z M518.743,439.714
		c-20.4,0-37.886,17.486-37.886,37.886c0,20.4,17.485,37.886,37.886,37.886c20.399,0,37.886-17.485,37.886-37.886
		C556.629,455.743,539.143,439.714,518.743,439.714z"/>
	<path fill="#88c9be" d="M374.485,226.972c-21.856,0-45.171,0-67.028,0c-8.743,0-13.114-5.829-13.114-13.115
		c0-7.286,5.829-11.657,13.114-11.657c1.457,0,1.457,0,2.914,0c33.515,0,67.029,0,100.543,0c8.743,0,18.943,0,27.686,0
		c11.657,0,17.486,4.371,17.486,11.657c0,7.286-5.829,13.115-16.028,13.115C418.2,226.972,396.343,226.972,374.485,226.972z"/>
	<path fill="#88c9be" d="M374.485,377.057c-21.856,0-45.171,0-67.028,0c-8.743,0-14.571-4.372-14.571-11.657
		s5.829-13.114,13.114-13.114c8.743,0,17.485,0,26.229,0c36.429,0,71.4,0,107.828,0c11.657,0,17.486,8.743,13.115,17.486
		c-2.915,5.829-7.286,7.286-13.115,7.286C419.657,377.057,396.343,377.057,374.485,377.057z"/>
	<path fill="#88c9be" d="M374.485,527.143c-21.856,0-45.171,0-67.028,0c-8.743,0-14.571-4.371-14.571-11.657
		c0-7.285,5.829-13.114,13.114-13.114c8.743,0,17.485,0,26.229,0c36.429,0,71.4,0,107.828,0c11.657,0,17.486,8.743,13.115,17.486
		c-1.458,5.828-5.829,7.285-11.657,7.285C419.657,527.143,396.343,527.143,374.485,527.143z"/>
	<path fill="#88c9be" d="M343.886,177.429c-11.657,0-23.314,0-34.972,0c-8.743,0-14.571-4.372-14.571-13.114
		c0-7.286,5.829-11.657,14.571-11.657c23.314,0,46.629,0,69.943,0c8.742,0,14.571,4.371,14.571,11.657
		c0,7.286-5.829,13.114-14.571,13.114C367.2,177.429,355.543,177.429,343.886,177.429z"/>
	<path fill="#88c9be" d="M343.886,327.514c-11.657,0-23.314,0-34.972,0c-8.743,0-14.571-5.829-14.571-13.114
		s5.829-11.657,14.571-11.657c23.314,0,46.629,0,69.943,0c8.742,0,14.571,4.372,14.571,11.657s-5.829,11.657-14.571,13.114
		C367.2,327.514,355.543,327.514,343.886,327.514z"/>
	<path fill="#88c9be" d="M343.886,477.6c-11.657,0-23.314,0-34.972,0c-8.743,0-14.571-5.828-14.571-11.656
		c0-7.286,5.829-11.657,14.571-11.657c23.314,0,46.629,0,69.943,0c8.742,0,14.571,4.371,14.571,11.657
		c0,7.285-5.829,13.114-14.571,13.114C367.2,477.6,355.543,477.6,343.886,477.6z"/>
	<path fill="#88c9be" d="M531.857,677.229c7.285,0,11.657,5.829,11.657,13.114c0,7.286-5.829,11.657-13.114,11.657
		c-5.829,0-11.657-5.828-11.657-11.657C518.743,683.058,524.571,677.229,531.857,677.229z"/>
	<path fill="#88c9be" d="M568.286,702c-7.286,0-11.657-5.828-11.657-13.114s5.828-11.657,13.114-11.657
		c5.828,0,11.657,5.829,11.657,11.657C581.4,696.172,575.571,702,568.286,702z"/>
	<path fill="#88c9be" d="M150.086,277.972c2.914,0,4.371,0,7.286,0c7.286,0,11.657,5.828,11.657,11.657s-4.372,11.657-11.657,11.657
		c-4.372,0-8.743,0-13.114,0c-7.286,0-13.114-5.829-13.114-11.657c0-7.286,5.829-11.657,13.114-13.114
		C145.714,277.972,148.628,277.972,150.086,277.972L150.086,277.972z"/>
	<path fill="#88c9be" d="M150.086,339.171c-2.915,0-4.372,0-7.286,0c-7.286,0-11.657-5.829-11.657-11.657
		s4.371-11.657,11.657-11.657c4.372,0,8.743,0,13.114,0c7.286,0,13.114,5.829,13.114,11.657c0,7.286-5.828,11.657-13.114,13.114
		C153,339.171,151.543,339.171,150.086,339.171L150.086,339.171z"/>
</g>
</svg>
