<?xml version="1.0" encoding="utf-8"?>
<!-- Generator: Adobe Illustrator 16.0.0, SVG Export Plug-In . SVG Version: 6.00 Build 0)  -->
<!DOCTYPE svg PUBLIC "-//W3C//DTD SVG 1.1//EN" "http://www.w3.org/Graphics/SVG/1.1/DTD/svg11.dtd">
<svg version="1.1" id="Layer_1" xmlns="http://www.w3.org/2000/svg" xmlns:xlink="http://www.w3.org/1999/xlink" x="0px" y="0px"
	 width="612px" height="792px" viewBox="0 0 612 792" enable-background="new 0 0 612 792" xml:space="preserve">
<g>
	<path fill="#88c9be" d="M291.877,269.834c33.896-33.896,67.791-67.791,101.687-101.687c-1.884-1.883-3.767-3.766-5.649-5.649
		c-16.948-16.948-32.954-32.954-49.901-49.902c-3.767-3.766-7.532-7.532-3.767-12.24c1.883-2.825,7.532-5.649,11.299-5.649
		c63.083,0,126.166,0,189.249,0c9.415,0,13.182,2.825,13.182,12.24c0,63.083,0,126.166,0,189.249c0,4.708,0,10.357-5.649,12.24
		c-5.649,1.883-9.415-0.942-13.182-4.708c-17.889-17.889-35.778-36.72-54.609-55.55c-2.824,2.824-4.707,4.708-7.532,6.59
		c-44.252,44.252-87.563,87.563-131.815,131.815c-26.363,26.363-59.317,26.363-85.68,0c-10.357-10.357-19.772-20.714-32.012-32.954
		c-2.825,3.766-3.766,6.591-5.649,9.415c-49.901,49.901-98.861,99.804-148.763,150.646c-3.766,3.766-6.591,7.532-13.182,5.649
		c-6.59-2.825-5.649-7.532-5.649-13.182c0-42.369,0-83.797,0-125.225c0-6.591,1.883-11.299,6.591-15.065
		c42.369-42.369,84.738-84.738,127.107-126.166c24.48-24.48,58.375-24.48,82.855,0C271.163,249.12,281.52,259.477,291.877,269.834z"
		/>
	<path fill="#88c9be" d="M609.176,511.81c0,57.434,0,114.867,0,172.301c0,11.299-1.884,14.123-13.182,14.123
		c-29.188,0-59.317,0-88.505,0c-10.357,0-13.182-2.824-13.182-13.181c0-113.927,0-228.794,0-342.721
		c0-12.24,1.883-15.064,15.064-15.064c29.188,0,57.434,0,86.622,0c12.239,0,15.064,1.883,15.064,14.123
		C609.176,397.883,609.176,454.375,609.176,511.81z"/>
	<path fill="#88c9be" d="M445.348,575.834c0,35.778,0,72.498,0,108.276c0,10.357-2.824,13.182-13.182,13.182
		c-30.129,0-60.259,0-90.388,0c-9.415,0-12.24-2.824-12.24-12.239c0-72.499,0-145.938,0-218.438c0-10.356,1.884-12.24,12.24-12.24
		c30.129,0,60.259,0,90.388,0c11.299,0,13.182,1.884,13.182,12.24C445.348,503.335,445.348,539.114,445.348,575.834z"/>
	<path fill="#88c9be" d="M166.652,599.372c0-27.305,0-55.551,0-82.855c0-11.298,1.883-13.182,13.182-13.182
		c30.129,0,60.258,0,91.329,0c8.474,0,11.298,2.825,11.298,11.299c0,56.492,0,113.926,0,170.419c0,9.415-2.825,12.239-12.24,12.239
		c-31.071,0-61.2,0-92.271,0c-8.474,0-11.298-2.824-11.298-12.239C166.652,656.806,166.652,628.56,166.652,599.372L166.652,599.372z
		"/>
	<path fill="#88c9be" d="M2.825,637.976c0-16.007,0-32.013,0-48.019c0-9.415,1.883-11.299,11.298-11.299c30.129,0,61.2,0,91.329,0
		c9.416,0,12.24,2.825,12.24,12.24c0,31.07,0,63.083,0,94.154c0,9.415-2.825,12.239-12.24,12.239c-30.129,0-60.258,0-91.329,0
		c-10.357,0-12.24-2.824-12.24-12.239C2.825,669.046,2.825,653.04,2.825,637.976z"/>
</g>
</svg>
