<?xml version="1.0" encoding="utf-8"?>
<!-- Generator: Adobe Illustrator 16.0.0, SVG Export Plug-In . SVG Version: 6.00 Build 0)  -->
<!DOCTYPE svg PUBLIC "-//W3C//DTD SVG 1.1//EN" "http://www.w3.org/Graphics/SVG/1.1/DTD/svg11.dtd">
<svg version="1.1" id="Layer_1" xmlns="http://www.w3.org/2000/svg" xmlns:xlink="http://www.w3.org/1999/xlink" x="0px" y="0px"
	 width="612px" height="792px" viewBox="0 0 612 792" enable-background="new 0 0 612 792" xml:space="preserve">
<g>
	<g>
		<path fill="#88c9be" d="M269.571,637.886c-4.371,1.457-8.743,2.914-11.657,2.914h-1.457c-1.457,0-2.914,0-4.371-1.457
			c-1.458-1.457-1.458-2.914,0-4.371c4.371-5.829,7.286-11.657,11.657-18.943c1.458-1.457,2.915-4.371,4.372-5.828
			s0-4.372-1.457-4.372c-2.915,0-5.829-1.457-8.743-1.457c-2.914-1.457-4.371-1.457-4.371-4.371s0-5.828,0-7.286
			c0-1.457,0-2.914-1.457-2.914c-1.458-1.457-4.372-1.457-5.829-2.914c-4.372-2.914-4.372-4.371-2.915-7.286
			c1.457-2.914,1.457-4.371,2.915-7.285c0-1.457,0-1.457,0-2.914c-1.458-1.457-2.915-4.372-5.829-5.829
			c-1.458-2.914-1.458-4.371,0-7.285c1.457-1.458,2.914-4.372,4.371-5.829c1.458-1.457,1.458-2.914,1.458-4.371
			c-1.458-2.914-1.458-4.372-2.915-7.286s0-4.371,1.457-5.828c2.915-1.457,4.372-2.914,7.286-4.372c1.457,0,1.457-1.457,1.457-2.914
			c0-2.914,0-5.828,0-8.742c0-2.915,1.457-4.372,4.371-5.829c2.915,0,5.829-1.457,7.286-1.457c1.457,0,1.457-1.457,2.914-1.457
			c1.457-2.914,1.457-4.372,2.914-7.286c1.458-2.914,2.915-4.371,5.829-2.914c2.915,0,5.829,0,7.286,1.457
			c1.457,0,2.914,0,2.914-1.457c1.457-1.457,2.915-4.371,4.372-5.828c2.914-2.915,4.371-2.915,7.286-1.458
			c2.914,1.458,4.372,2.915,7.286,4.372c1.457,0,1.457,0,2.914,0c2.914-1.457,4.372-2.914,7.286-4.372
			c2.914-1.457,4.371-1.457,7.285,1.458c1.458,1.457,2.915,4.371,5.829,5.828c0,0,1.457,1.457,2.914,1.457
			c2.914,0,4.371,0,7.286-1.457c2.914,0,5.828,0,7.285,2.914s1.457,4.372,2.914,7.286c0,1.457,1.458,1.457,2.915,1.457
			c2.914,0,4.371,1.457,7.285,1.457c4.372,1.457,4.372,2.914,4.372,5.829c0,2.914,0,4.371,0,7.285c0,1.457,0,2.914,1.457,2.914
			c1.457,1.457,4.371,2.915,5.828,4.372c2.914,1.457,4.372,2.914,2.914,7.285c-1.457,2.914-1.457,4.372-2.914,7.286
			c0,1.457,0,1.457,0,2.914c1.457,1.457,2.914,4.371,4.372,5.828c1.457,2.915,1.457,4.372,0,7.286
			c-1.458,2.914-2.915,4.371-4.372,5.829c-1.457,1.457-1.457,2.914,0,4.371c1.457,2.914,1.457,4.371,2.914,7.285
			c1.458,2.915,0,4.372-2.914,5.829s-4.371,2.914-7.285,4.371c-1.458,1.457-1.458,1.457-1.458,2.914c0,2.915,0,5.829,0,8.743
			s-1.457,2.914-4.371,4.371c-2.914,0-4.371,1.458-7.285,1.458c-2.915,0-4.372,2.914-2.915,5.828
			c4.372,7.286,8.743,16.028,13.114,23.314c0,1.457,1.457,2.914,0,2.914c0,1.457-1.457,2.914-2.914,1.457
			c-4.371-1.457-8.743-1.457-11.657-2.914c-1.457,0-1.457,0-2.914,1.457c-1.457,4.371-1.457,7.286-2.914,11.657
			c0,1.457-1.457,2.914-2.915,2.914c-1.457,0-2.914,0-2.914-1.457c-4.371-7.285-8.742-14.571-13.114-23.314
			c0-1.457-1.457-1.457-2.914-1.457s-2.914,0-4.371-1.457c-2.915-1.457-4.372-2.914-7.286-4.371c-1.457,0-1.457,0-2.914,0
			c-2.915,1.457-4.372,2.914-7.286,4.371c-1.458,0-2.915,0-4.372,1.457c0,0-1.457,0-1.457,1.457
			c-4.372,7.286-8.743,16.029-13.114,23.314c0,1.457-1.458,1.457-1.458,1.457c-1.457,1.457-2.914,0-4.371-2.914
			C272.486,648.086,271.028,643.714,269.571,637.886C269.571,639.343,269.571,637.886,269.571,637.886z M357,521.314
			c0-1.457,0-2.914,0-4.371c0-1.458,0-2.915-1.457-2.915s-2.914,0-4.371-1.457c-4.372,0-7.286-2.914-8.743-7.285
			c0-1.458-1.457-2.915-1.457-4.372s-1.457-1.457-2.915-1.457c-1.457,0-2.914,0-4.371,1.457c-4.371,1.457-7.285,0-10.2-2.914
			c-1.457,0-2.914-1.457-2.914-2.914c-1.457-1.457-1.457-1.457-2.914,0s-4.371,2.914-5.829,4.371c-1.457,1.457-2.914,1.457-5.828,0
			s-4.372-2.914-7.286-4.371c-1.457-1.457-1.457,0-2.915,0c-1.457,1.457-2.914,4.371-4.371,5.828
			c-1.458,1.457-2.915,2.914-5.829,1.457c-2.915,0-4.372,0-7.286-1.457c-1.458,0-2.915,0-2.915,1.457
			c-1.457,2.915-1.457,4.372-2.914,7.286c0,1.457-1.458,2.914-4.372,2.914s-4.372,1.457-7.286,1.457
			c-1.457,0-2.915,1.457-2.915,2.915c0,2.914,0,4.371,0,7.285c0,1.457-1.457,4.371-2.914,4.371
			c-2.915,1.458-4.372,2.915-7.286,4.372c-1.457,0-1.457,1.457-1.457,2.914c1.457,2.914,1.457,4.371,2.914,7.286
			c0,1.457,0,4.371-1.457,5.828s-2.915,4.371-4.372,5.828c-1.457,1.458-1.457,1.458,0,2.915s2.915,4.371,4.372,5.828
			c1.457,2.914,2.914,4.371,1.457,7.286c-1.457,1.457-1.457,4.371-2.914,5.828c0,1.457,0,1.457,1.457,2.914
			c2.914,1.458,4.371,2.915,7.286,4.372c1.457,1.457,2.914,2.914,2.914,4.371c0,2.914,0,5.829,0,7.286s0,1.457,1.458,1.457
			c2.914,0,4.371,1.457,7.286,1.457c2.914,0,4.371,1.457,4.371,4.371c1.458,2.914,1.458,4.371,2.915,7.286
			c0,1.457,1.457,1.457,2.914,1.457c2.915,0,5.829-1.457,8.743-1.457c1.457,0,4.371,0,5.829,1.457
			c1.457,1.457,2.914,4.371,5.829,5.828c0,1.457,1.457,1.457,2.914,0c2.915-1.457,4.372-2.914,7.286-4.371
			c1.457-1.457,4.371-1.457,5.829,0c1.457,1.457,4.371,2.914,5.828,4.371s2.914,0,2.914,0c1.457-1.457,2.915-4.371,4.372-5.828
			s2.914-1.457,4.371-1.457c2.914,0,5.828,0,8.743,1.457c1.457,0,1.457,0,1.457-1.457c1.457-2.915,1.457-4.372,2.914-7.286
			s2.914-4.371,4.371-4.371c2.915,0,4.372-1.457,7.286-1.457c1.457,0,1.457-1.457,1.457-2.914c0-2.915,0-4.372,0-7.286
			s1.457-4.371,2.914-5.829c2.914-1.457,4.372-2.914,7.286-4.371c1.457,0,1.457-1.457,1.457-2.914
			c-1.457-2.914-1.457-5.829-2.914-7.286c0-1.457,0-2.914,1.457-5.828s2.914-4.372,5.828-7.286c1.457-1.457,1.457-1.457,0-2.914
			s-1.457-2.914-2.914-2.914c-4.371-2.914-4.371-7.286-1.457-13.114c2.914-5.829,2.914-4.372-2.914-8.743
			C358.457,530.058,355.543,527.143,357,521.314z M336.6,643.714c0-1.457,0-1.457,0-1.457c0-2.914,1.458-4.371,1.458-7.285
			s1.457-2.914,4.371-2.914s4.371,1.457,7.285,1.457c1.458,0,1.458,0,2.915,0l0,0c-2.915-5.829-5.829-10.2-8.743-16.029
			c-1.457,1.457-2.914,2.915-5.828,1.457c-1.458,0-4.372,0-5.829-1.457c-2.914-1.457-5.828,0-7.285,2.915
			c0,1.457-1.458,1.457,0,2.914c2.914,5.828,5.828,11.657,10.199,17.485C336.6,642.257,336.6,642.257,336.6,643.714z
			 M276.857,642.257C276.857,642.257,276.857,643.714,276.857,642.257C278.314,642.257,278.314,642.257,276.857,642.257
			c4.372-7.285,7.286-13.114,11.657-18.942v-1.457c-2.914-4.372-2.914-4.372-7.286-2.914c-1.457,0-1.457,0-2.914,0
			c-2.915,0-5.829,1.457-7.286-1.458c-2.914,5.829-5.828,10.2-8.743,16.029c2.915-1.457,5.829-1.457,8.743-2.915
			c2.915-1.457,4.372,0,5.829,2.915C275.4,637.886,276.857,639.343,276.857,642.257z"/>
		<path fill="#88c9be" d="M307.457,508.2C333.686,508.2,357,528.6,357,557.743c0,29.143-24.771,51-51,49.543
			s-48.086-21.857-48.086-51C257.914,530.058,279.771,508.2,307.457,508.2z M307.457,601.457c23.314,0,43.715-18.942,43.715-42.257
			c1.457-24.771-18.943-45.172-43.715-46.629c-24.771,0-45.171,20.4-45.171,43.714C262.286,582.515,282.686,601.457,307.457,601.457
			z"/>
		<path fill="#88c9be" d="M287.057,579.6c0-4.371,1.457-8.742,1.457-13.114c0-1.457,0-1.457-1.457-2.914s-2.914-2.914-4.372-4.371
			c-1.457-1.457-2.914-2.915-4.371-4.372c-2.915-4.371-2.915-7.285,2.914-8.742c4.372-1.457,8.743-1.457,11.657-1.457
			c1.457,0,2.914,0,2.914-1.458c1.458-2.914,2.915-5.828,4.372-8.742c1.457-1.457,1.457-2.914,2.915-4.372
			c1.457-1.457,4.371-1.457,5.828,0c1.457,1.458,1.457,2.915,2.914,4.372c1.458,2.914,2.915,5.828,4.372,8.742l1.457,1.458
			c4.371,0,7.286,1.457,11.657,1.457c1.457,0,2.914,0,2.914,1.457c1.457,1.457,2.914,2.914,1.457,4.371s-1.457,2.914-2.914,4.371
			c-1.457,2.915-4.371,4.372-7.286,7.286c-1.457,1.457-1.457,1.457-1.457,2.914c0,2.915,1.457,7.286,1.457,10.2
			c0,1.457,0,1.457,0,2.914c0,2.915-2.914,4.372-5.828,4.372c-2.914-1.457-5.829-2.915-8.743-4.372c-7.286-2.914-4.371-2.914-10.2,0
			c-2.915,1.457-5.829,2.915-8.743,4.372C289.971,586.886,288.514,585.429,287.057,579.6
			C288.514,581.058,288.514,581.058,287.057,579.6L287.057,579.6z M320.571,579.6c0-2.914-1.457-4.371-1.457-7.285
			c-1.457-7.286-1.457-7.286,4.371-13.114c1.457-1.457,2.915-2.915,5.829-5.829c-1.457,0-1.457,0-2.914,0
			c-2.915,0-7.286-1.457-10.2-1.457c-1.457,0-2.915-1.457-4.372-2.914c-1.457-2.914-2.914-5.829-4.371-7.286
			c0-1.457-1.457-1.457-1.457-2.914c0,1.457-1.457,1.457-1.457,1.457c-1.458,2.914-2.915,5.829-4.372,8.743
			c-1.457,1.457-2.914,2.914-4.372,2.914c-1.457,0-4.371,0-5.829,1.457c-1.457,0-4.371,0-7.286,1.457
			c2.915,2.915,4.372,4.372,7.286,7.286c2.915,2.914,2.915,5.828,2.915,8.743c0,2.914-1.457,5.828-1.457,10.199
			c1.457,0,1.457-1.457,2.914-1.457c2.915-1.457,5.829-2.914,8.743-4.371c1.457-1.457,2.914-1.457,4.371,0
			c2.914,1.457,5.829,2.914,8.743,4.371C319.114,578.143,320.571,578.143,320.571,579.6z"/>
	</g>
	<path fill="#88c9be" d="M212.743,216.771c1.458-23.314,1.458-46.628,2.915-69.943c0-5.829,1.457-11.657,4.372-17.486
		c8.743-26.229,23.314-36.429,51-34.971c20.4,0,40.8-1.458,61.2-4.372c24.771-2.914,46.629,13.114,53.914,36.429
		c5.829,16.028,11.657,32.057,11.657,49.543c0,13.114,0,26.229,0,39.343c10.2,4.371,13.114,10.2,11.657,23.314
		c-1.457,10.2-4.371,20.4-8.743,29.143c-1.457,4.372-7.285,7.286-11.657,10.2c-1.457,1.457-2.914,2.914-4.371,4.371
		c-7.285,11.657-14.571,23.314-21.857,34.972c-4.371,7.286-4.371,16.028,2.915,20.4c7.285,5.829,14.571,13.114,23.314,18.943
		c1.457,1.457,4.371,2.914,5.828,2.914c10.2,2.915,20.4,5.829,30.6,8.743c29.144,10.2,53.915,26.229,64.114,56.828
		c0,1.457,4.372,2.915,5.829,2.915c24.771,1.457,32.057,10.199,29.143,34.971c-10.2,71.4-20.399,144.258-30.6,215.657
		C491.058,694.714,482.314,702,466.286,702c-106.372,0-214.2,0-322.029,0c-16.029,0-24.771-7.286-27.686-23.314
		c-5.829-39.343-11.657-78.686-16.028-118.028c-4.372-33.515-8.743-65.571-13.114-99.086c-2.915-20.399,7.286-32.057,27.686-32.057
		c4.372,0,7.286,0,8.743-4.372c8.743-27.686,30.6-43.714,56.829-53.914c2.915-1.457,4.372-1.457,7.286-2.914
		c24.771-2.915,42.257-17.486,61.2-32.057c2.915-2.915,2.915-13.115,0-17.486c-7.286-11.657-16.029-24.771-23.314-36.429
		c-1.457-1.457-2.914-2.914-2.914-2.914c-7.286-1.458-11.657-5.829-13.114-13.114c-2.915-11.657-5.829-21.857-7.286-33.515
		C201.086,224.057,205.457,218.229,212.743,216.771z M306,442.629L306,442.629c-64.114,0-126.771,0-190.886,0
		c-13.114,0-17.486,5.828-16.028,17.485c10.2,71.4,20.4,142.8,30.6,214.2c1.458,11.657,4.372,16.028,17.486,16.028
		c106.372,0,211.286,0,317.657,0c13.114,0,16.029-2.914,17.486-16.028c10.2-71.4,20.399-142.8,29.143-214.2
		c1.457-13.114-2.914-17.485-14.571-17.485C434.229,442.629,370.114,442.629,306,442.629z M244.8,196.372
		c-4.371,20.4-7.286,40.8-4.371,61.2c0,2.915,1.457,7.286,0,8.743c-4.372,4.371-1.458,7.286,0,11.657
		c1.457,5.828,4.371,10.2,7.286,14.571c13.114,21.857,30.6,36.429,56.829,37.886c33.514,2.914,62.657-23.314,72.857-58.286
		c0-1.458,0-2.915,0-4.372c0-2.915-1.458-7.286-1.458-10.2c2.915-32.057-4.371-61.2-17.485-90.343
		C308.914,196.372,308.914,196.372,244.8,196.372z M134.057,429.515c115.114,0,228.771,0,342.428,0
		c-1.457-10.2-8.742-20.4-20.399-30.601c-20.4-17.485-48.086-20.4-72.857-30.6c-8.743,16.028-17.485,32.057-26.229,48.086
		c-5.828,11.656-10.2,11.656-16.028,0c-7.286-10.2-13.114-20.4-20.4-32.058c-5.828,4.372-10.2,10.2-14.571,10.2
		c-4.372,0-10.2-5.829-14.571-10.2c-1.457,1.457-1.457,2.915-2.915,4.372c-5.829,10.2-11.657,18.943-18.943,29.143
		c-4.371,7.285-8.743,7.285-14.571,0c-1.457-1.457-2.914-4.372-2.914-5.829c-7.286-14.571-16.029-29.143-23.314-43.714
		c-16.029,4.371-30.6,8.743-45.171,14.571C161.743,391.628,144.257,404.743,134.057,429.515z M224.4,209.486
		c1.457,0,1.457,0,2.915,0c1.457-7.286,2.914-13.114,5.829-20.4c1.457-4.372,4.371-7.286,8.743-5.829
		c2.914,0,5.829,1.457,8.743,1.457c36.429,2.914,69.943-4.372,99.085-29.143c7.286-5.829,10.2-5.829,14.572,2.915
		c4.371,10.2,8.742,18.943,11.656,29.143c2.915,7.286,4.372,16.029,7.286,23.314c1.457-8.743,2.914-16.029,2.914-24.771
		c0-18.943-4.371-36.429-10.2-53.914c-7.285-20.4-21.856-30.6-42.257-29.143c-21.857,1.457-42.257,4.372-62.657,4.372
		c-24.771,0-36.428,7.286-40.8,30.6C225.857,161.4,225.857,184.714,224.4,209.486z M306,381.429
		c11.657-11.657,23.314-21.857,34.972-32.057c5.828-4.372,7.285-10.2,5.828-17.486c-27.686,16.028-55.371,16.028-84.514-1.457
		c1.457,7.286,1.457,13.114,4.372,16.028C278.314,358.114,291.429,369.771,306,381.429z M262.286,406.2
		c7.286-10.2,13.114-20.4,18.943-29.143c-10.2-10.2-20.4-18.943-30.6-27.686c-4.371,2.914-8.743,7.286-13.114,10.2
		c7.286,13.114,14.572,26.229,20.4,37.886C259.372,400.371,260.829,403.286,262.286,406.2z M348.257,406.2
		c5.829-11.657,13.114-23.314,18.943-33.515c7.285-13.114,7.285-13.114-5.829-21.857h-1.457
		c-10.2,8.743-18.942,17.486-29.143,26.229C336.6,387.257,342.429,396,348.257,406.2z M389.058,261.943
		c7.285-13.114,8.742-27.686,4.371-33.514C387.6,243,386.143,259.028,389.058,261.943z M222.943,261.943
		c1.457-11.657-4.372-21.857-7.286-33.514C214.2,241.543,217.114,251.743,222.943,261.943z"/>
</g>
</svg>
