<?xml version="1.0" encoding="utf-8"?>
<!-- Generator: Adobe Illustrator 16.0.0, SVG Export Plug-In . SVG Version: 6.00 Build 0)  -->
<!DOCTYPE svg PUBLIC "-//W3C//DTD SVG 1.1//EN" "http://www.w3.org/Graphics/SVG/1.1/DTD/svg11.dtd">
<svg version="1.1" id="Layer_1" xmlns="http://www.w3.org/2000/svg" xmlns:xlink="http://www.w3.org/1999/xlink" x="0px" y="0px"
	 width="612px" height="792px" viewBox="0 0 612 792" enable-background="new 0 0 612 792" xml:space="preserve">
<g>
	<path fill="#88c9be" d="M438.6,210.943c-2.914,14.571-10.199,24.771-21.856,32.057c-1.457,1.457-1.457,4.372-1.457,5.829
		c4.371,26.229,8.742,52.457,13.114,78.686c0,4.372,0,8.743,1.457,13.114c0,4.372-1.457,7.286-7.286,8.743
		c-4.371,0-7.285-2.915-7.285-7.286c-2.915-24.771-5.829-48.086-10.2-72.857c-1.457-7.286-2.914-13.114-4.372-18.943
		c-27.686,0-42.257-10.2-51-34.971c0-1.458-2.914-2.915-2.914-2.915c-18.942,0-36.429,0-55.371,0c-1.458,0-2.915,0-5.829,0
		c0,2.915,0,5.829,0,7.286c0,65.572,0,131.143,0,196.715c0,4.371,1.457,10.199-1.457,14.571c-1.458,2.914-8.743,2.914-13.115,4.371
		c-16.028,4.371-26.229,18.942-23.314,34.972c1.457,14.571,14.571,27.686,30.6,27.686c8.743,0,11.657,2.914,8.743,11.657
		c0,1.457,0,2.914,0,4.371c0,37.886,0,75.771,0,113.657c0,1.457,0,2.914,0,5.829c11.657-1.458,21.857-1.458,32.057-2.915h1.457
		c7.286-1.457,11.657,0,11.657,5.829c0,4.371-2.914,7.285-10.2,8.742c-136.971,20.4-266.657-58.285-308.914-190.886
		c-42.257-131.143,21.857-278.314,147.171-335.143c144.257-65.571,308.915-2.914,373.029,141.343
		c14.571,33.515,21.857,68.486,23.314,106.372c0,7.286-1.457,10.2-7.286,10.2c-4.371,0-7.286-2.915-7.286-10.2
		c-2.914-58.286-18.942-107.829-50.999-151.542c-2.915-2.915-4.372-4.372-8.743-4.372
		C467.743,210.943,453.172,210.943,438.6,210.943z M269.571,359.571c0-49.543,0-99.085,0-148.628h-1.457
		c-32.057,0-65.571,0-97.628,0c-1.458,0-2.915,1.457-4.372,2.914c-4.372,11.657-8.743,24.771-11.657,36.429
		c1.457,1.457,1.457,1.457,1.457,1.457c16.029,10.2,24.771,26.229,21.857,46.629c-2.915,18.943-14.571,32.057-33.514,37.886
		c-1.458,0-2.915,1.457-2.915,2.914c0,7.286,0,14.571,0,23.314C183.6,359.571,225.857,359.571,269.571,359.571z M269.571,375.6
		c-43.714,0-87.428,0-129.686,0c0,7.286,0,13.114,0,18.943c2.914,42.257,10.2,84.515,24.771,123.857
		c1.457,4.371,2.914,5.828,7.286,5.828c30.6,0,61.2,0,91.8,0c1.458,0,4.372,0,5.829,0c0-5.828,0-10.2,0-14.571
		c-24.771-8.743-37.886-23.314-37.886-42.257c0-26.229,14.572-40.801,37.886-48.086C269.571,404.743,269.571,390.171,269.571,375.6z
		 M14.571,374.143c0,1.457,0,2.914,0,2.914c1.458,52.458,18.943,100.542,49.543,142.8c1.457,1.457,4.372,2.914,7.286,2.914
		c26.229,0,51,0,77.229,0c1.458,0,2.915,0,2.915,0c-5.829-24.771-13.114-49.543-17.486-74.314s-5.829-49.543-8.743-75.771
		C87.429,374.143,51,374.143,14.571,374.143z M13.114,359.571c37.886,0,74.314,0,112.2,0c0-8.743,0-16.028,0-24.771
		c-1.458,0-2.915-1.457-5.829-1.457c-24.771-7.286-39.343-32.057-32.057-56.829c5.829-20.4,24.771-33.514,46.628-32.057
		c1.457,0,5.829,0,5.829-1.457c4.372-10.2,7.286-20.4,10.2-32.057c-2.915,0-4.372,0-5.829,0c-24.771,0-49.543,0-72.857,0
		c-4.372,0-7.286,1.457-8.743,4.372C40.8,247.372,26.229,280.886,18.943,318.771C16.029,331.886,14.571,346.457,13.114,359.571z
		 M269.571,630.6c0-30.6,0-61.199,0-91.8c-32.057,0-64.114,0-96.171,0c0,1.457,0,1.457,0,2.914
		c10.2,23.314,23.314,43.715,42.257,61.2C231.686,617.485,247.714,627.686,269.571,630.6z M269.571,104.571
		c-18.943,1.457-34.971,10.2-48.085,21.857c-21.857,18.943-36.429,42.257-48.086,68.485c33.514,0,64.114,0,96.171,0
		c0-29.143,0-58.286,0-85.971C269.571,107.486,269.571,106.028,269.571,104.571z M365.743,167.229
		c-14.571-32.057-56.829-64.114-80.143-61.2c0,30.6,0,59.743,0,90.343c21.857,0,42.257,0,62.657,0
		C349.714,183.257,355.543,174.514,365.743,167.229z M80.143,538.8v1.457c37.886,42.258,83.057,69.943,138.428,83.058
		c-8.743-10.2-17.485-17.486-24.771-27.686c-13.114-16.029-23.314-33.515-32.057-52.458c-1.457-1.457-2.914-4.371-5.829-4.371
		C129.686,538.8,104.914,538.8,80.143,538.8z M217.114,110.4c-55.372,13.114-102,40.8-139.886,84.514c24.771,0,48.086,0,71.4,0
		c7.286,0,10.2-1.457,13.114-8.743c8.743-16.028,18.943-33.514,29.143-48.085C198.171,129.343,208.372,120.6,217.114,110.4z
		 M338.058,111.857c16.028,13.115,27.686,29.143,39.343,45.171c1.457,1.458,4.371,1.458,5.828,1.458
		c24.771-4.372,46.629,8.743,53.914,33.514c0,1.457,1.457,2.914,1.457,4.372c13.114,0,24.771,0,37.886,0
		C438.6,152.657,393.429,124.972,338.058,111.857z M132.6,321.686c17.486,0,32.057-14.571,32.057-32.057
		c0-17.485-14.571-30.6-32.057-30.6s-32.057,14.572-32.057,32.058C100.543,307.114,115.114,321.686,132.6,321.686z M361.371,203.657
		c0,17.486,14.571,30.6,30.601,32.057c17.485,0,32.057-14.571,32.057-32.057s-14.571-30.6-30.6-30.6
		C375.942,171.6,361.371,186.171,361.371,203.657z"/>
	<path fill="#88c9be" d="M308.914,451.371c1.457-11.657,1.457-24.771,2.914-36.429c0-8.742,2.915-10.199,11.657-10.199
		c40.801,1.457,77.229-8.743,110.743-32.058c7.286-5.829,14.571-11.657,21.857-18.943c5.828-4.371,7.285-4.371,13.114,0
		c37.886,36.429,81.6,52.458,132.6,51c7.286,0,10.2,1.457,10.2,8.742c5.828,62.657,0,122.4-27.686,180.687
		c-23.314,51-62.657,87.428-116.571,106.371c-4.372,1.457-8.743,1.457-13.114,0c-64.114-23.314-104.915-69.943-126.771-132.601
		C314.743,530.058,308.914,490.714,308.914,451.371z M324.942,419.314c0,1.457-1.457,1.457-1.457,1.457c0,1.457,0,2.914,0,4.371
		C320.571,477.6,324.942,530.058,346.8,579.6c21.857,51,56.829,87.429,109.286,106.372c2.914,1.457,7.285,1.457,10.2,0
		c11.656-5.829,24.771-10.2,34.971-17.486c42.258-26.229,68.486-67.028,83.058-113.657c13.114-42.257,16.028-84.514,14.571-128.229
		c0-5.828-2.914-7.285-7.286-7.285c-29.143,0-55.371-5.829-81.6-18.943c-17.485-8.743-33.515-18.942-48.086-32.057
		C422.571,403.286,377.4,419.314,324.942,419.314z"/>
	<path fill="#88c9be" d="M132.6,299.829c-5.829,0-8.743-4.372-8.743-8.743c0-5.829,4.372-8.743,10.2-8.743s8.743,4.372,8.743,10.2
		C141.343,295.457,136.971,299.829,132.6,299.829z"/>
	<path fill="#88c9be" d="M393.429,212.4c-5.829,0-10.2-4.372-10.2-8.743c0-4.372,4.371-10.2,8.743-10.2
		c4.371,0,10.2,4.372,10.2,8.743C402.172,208.028,399.257,212.4,393.429,212.4z"/>
	<path fill="#88c9be" d="M574.114,465.942c-1.457,40.801-8.743,80.144-27.686,116.572c-17.486,34.971-45.172,61.199-80.143,77.229
		c-4.372,1.457-7.286,1.457-11.657,0c-43.715-20.4-72.857-55.372-90.343-100.543c-13.114-34.972-17.486-71.4-17.486-107.829
		c0-5.828,2.914-8.742,8.743-10.199c36.429-4.372,69.942-17.486,99.086-37.887c4.371-2.914,7.285-1.457,11.657,0
		c26.229,18.943,56.828,30.601,88.886,36.429c2.914,0,5.828,1.458,8.742,1.458c7.286,1.457,8.743,2.914,8.743,10.199
		C574.114,457.2,574.114,461.571,574.114,465.942z M559.543,473.229c0-4.371,0-8.743,0-13.114s-1.457-4.371-4.371-5.828
		c-32.058-5.829-62.657-16.029-90.344-34.972c-4.371-2.914-5.828-2.914-10.199,0c-27.686,17.485-56.829,29.143-88.886,34.972
		c-4.372,0-4.372,2.914-4.372,5.828c0,32.058,5.829,64.114,17.486,94.714c14.571,39.344,39.343,69.943,77.229,88.886
		c4.371,1.458,7.285,1.458,10.2,0c33.514-16.028,56.828-42.257,71.399-75.771C552.257,538.8,558.086,506.743,559.543,473.229z"/>
	<path fill="#88c9be" d="M442.972,540.257c8.742-8.742,18.942-18.942,29.143-29.143s20.4-20.4,30.6-30.6
		c2.915-2.915,7.286-4.372,11.657-1.458c4.372,2.915,2.915,7.286,0,10.2c-20.399,20.4-42.257,42.258-62.657,62.657
		c-7.285,7.286-10.199,7.286-17.485,0c-8.743-8.742-16.028-16.028-23.314-24.771c-2.914-4.371-4.371-7.285,0-11.657
		c4.372-2.914,7.286-1.457,10.2,1.458C426.942,525.686,434.229,532.972,442.972,540.257z"/>
</g>
</svg>
