<?xml version="1.0" encoding="utf-8"?>
<!-- Generator: Adobe Illustrator 16.0.0, SVG Export Plug-In . SVG Version: 6.00 Build 0)  -->
<!DOCTYPE svg PUBLIC "-//W3C//DTD SVG 1.1//EN" "http://www.w3.org/Graphics/SVG/1.1/DTD/svg11.dtd">
<svg version="1.1" id="Layer_1" xmlns="http://www.w3.org/2000/svg" xmlns:xlink="http://www.w3.org/1999/xlink" x="0px" y="0px"
	 width="612px" height="792px" viewBox="0 0 612 792" enable-background="new 0 0 612 792" xml:space="preserve">
<g>
	<path fill="#B22425" d="M339.15,90c5.1,3.4,6.375,8.075,6.375,14.45c-0.426,11.475,0,22.95,0,35.275c2.55,0,5.1,0,7.225,0
		c32.725,0,65.45,0,98.175,0c10.2,0,13.175,2.975,13.175,13.175c0,22.95,0,45.475,0,68.425c0,2.125,0,4.675,0,7.225
		c45.476,4.675,82.45,25.075,109.65,61.625c19.975,26.775,29.75,56.95,28.475,90.525c-1.699,66.3-50.149,125.375-118.149,140.675
		c0,13.6,0,27.625,0,42.5c2.975,0,5.95,0,8.925,0c6.8,0.425,10.625,3.825,10.625,10.2c0,39.1,0,78.2,0,117.3
		c0,6.8-3.825,10.625-11.05,10.625c-25.5,0-51.425,0-76.925,0c-7.226,0-10.625-4.25-10.625-11.9c0-26.35,0-52.699,0-79.05
		c0-2.125,0-4.675,0-7.649c-2.551,0-4.676,0-6.801,0c-51.85,0-104.125,0-155.975,0c-12.325,0-14.875-2.551-14.875-14.875
		c0-115.601,0-231.625,0-347.226c0-2.125,0-4.25,0-5.95c-0.425,0-0.85,0-0.85,0c-3.4,14.45-6.8,28.9-9.775,43.35
		c-24.225,104.125-48.025,208.25-71.4,312.8c-2.125,8.925-5.95,11.475-15.3,9.35c-36.55-8.074-73.1-16.574-110.075-25.074
		c-9.35-2.125-11.9-5.95-9.775-15.726c26.775-119,53.55-238,80.75-357c2.125-9.775,6.375-12.325,16.575-9.775
		c36.125,8.5,72.25,16.575,107.95,24.65c3.825,0.85,6.8,2.975,10.625,4.25c0-1.275,0.425-2.975,0.425-5.1
		c0-37.825,0-75.65,0-113.475c0-5.95,1.275-10.625,6.375-14.45C268.6,90,303.875,90,339.15,90z M247.35,109.975
		c0,158.1,0,315.775,0,473.025c26.35,0,52.275,0,78.625,0c0-42.925,0-85,0-127.5c0-3.825-1.274-8.075-2.975-11.475
		c-22.95-45.476-22.525-90.95,0.425-136c1.7-2.975,2.55-6.375,2.55-9.775c0-60.775,0-121.125,0-181.9c0-2.125,0-3.825-0.425-5.95
		C299.2,109.975,273.275,109.975,247.35,109.975z M141.525,517.55c16.575-73.95,33.15-147.475,49.725-221
		c-32.3-8.075-63.75-15.725-96.05-23.375c-16.575,73.95-33.15,147.05-49.725,220.575C78.2,501.825,109.65,509.9,141.525,517.55z
		 M325.55,376.025c-0.425,71.825,55.675,128.35,127.5,128.775c72.25,0.425,129.2-55.675,129.2-127.5
		c0.425-72.25-55.675-129.2-127.075-129.2C382.5,247.675,325.975,303.35,325.55,376.025z M41.65,513.3
		c-3.4,15.3-6.8,29.75-10.2,44.625c32.725,7.65,64.175,14.45,96.05,22.101c3.4-14.45,6.375-28.476,9.775-42.926
		C105.4,529.025,73.525,521.375,41.65,513.3z M195.925,277.425c2.975-14.025,6.375-27.625,9.35-41.225
		c-32.725-7.225-64.175-14.45-96.05-22.1c-2.975,13.6-5.95,26.35-8.925,39.525C132.175,261.7,163.625,269.775,195.925,277.425z
		 M345.95,208.575c0,22.525,0,44.625,0,67.575c27.2-28.475,59.925-44.2,97.75-47.6c0-6.8,0-13.175,0-19.55
		C410.975,208.575,378.675,208.575,345.95,208.575z M345.525,188.175c33.149,0,65.449,0,97.75,0c0-9.775,0-19.55,0-28.9
		c-32.726,0-65.45,0-97.75,0C345.525,169.05,345.525,178.4,345.525,188.175z M424.15,521.375c-30.601-6.8-56.101-22.1-78.2-44.625
		c0,19.975,0,38.675,0,57.375c26.35,0,52.274,0,78.2,0C424.15,529.45,424.15,525.625,424.15,521.375z M345.525,583
		c19.975,0,39.524,0,57.375,0c1.699-5.95,1.274-12.75,4.675-15.725c3.399-3.4,10.2-3.4,16.149-4.676c0-2.125,0-5.1,0-8.074
		c-26.35,0-52.274,0-78.199,0C345.525,564.3,345.525,573.65,345.525,583z M424.575,583.85c0,6.801,0,12.75,0,19.125
		c19.55,0,39.1,0,58.225,0c0-6.8,0-12.75,0-19.125C463.675,583.85,444.125,583.85,424.575,583.85z M483.225,623.375
		c-19.975,0-39.1,0-58.649,0c0,6.8,0,12.75,0,19.125c19.55,0,39.1,0,58.649,0C483.225,636.125,483.225,630.175,483.225,623.375z
		 M424.575,681.6c19.975,0,39.1,0,58.649,0c0-6.8,0-12.75,0-19.125c-19.55,0-39.1,0-58.649,0
		C424.575,669.275,424.575,675.225,424.575,681.6z M444.125,563.45c6.8,0,13.175,0,19.125,0c0-13.175,0-25.925,0-38.675
		c-6.8,0-12.75,0-19.125,0C444.125,537.95,444.125,550.275,444.125,563.45z"/>
	<path fill="#B22425" d="M266.9,148.65c0-6.375,0-12.75,0-19.125c12.75,0,25.5,0,38.675,0c0,5.95,0,12.325,0,19.125
		C292.825,148.65,280.075,148.65,266.9,148.65z"/>
	<path fill="#B22425" d="M305.575,169.475c0,6.375,0,12.325,0,19.125c-13.175,0-25.925,0-39.1,0c0-6.375,0-12.325,0-19.125
		C279.65,169.475,292.4,169.475,305.575,169.475z"/>
	<path fill="#B22425" d="M266.9,208.575c12.75,0,25.5,0,38.675,0c0,6.375,0,12.75,0,19.125c-12.75,0-25.5,0-38.675,0
		C266.9,221.75,266.9,215.375,266.9,208.575z"/>
	<path fill="#B22425" d="M305.575,544.325c0,6.375,0,12.325,0,19.125c-13.175,0-25.925,0-39.1,0c0-6.375,0-12.325,0-19.125
		C279.65,544.325,292.4,544.325,305.575,544.325z"/>
	<path fill="#B22425" d="M453.9,267.65c58.225,0,108.375,50.15,108.8,108.8c0,57.8-50.15,108.375-107.525,108.375
		c-59.075,0-109.225-49.3-109.649-107.95C345.1,318.225,395.25,267.65,453.9,267.65z M454.325,287.2
		c-49.726-0.425-88.825,38.25-89.25,87.55c-0.425,50.575,37.825,89.675,87.125,90.1c51,0.426,90.1-37.399,90.524-87.55
		C543.15,326.725,504.9,287.625,454.325,287.2z"/>
</g>
</svg>
